<?xml version="1.0" encoding="UTF-8" standalone="no"?>
<svg
   version="1.1"
   width="40"
   height="40"
   id="svg10"
   sodipodi:docname="shp.svg"
   inkscape:version="1.4.2 (f4327f4, 2025-05-13)"
   xmlns:inkscape="http://www.inkscape.org/namespaces/inkscape"
   xmlns:sodipodi="http://sodipodi.sourceforge.net/DTD/sodipodi-0.dtd"
   xmlns="http://www.w3.org/2000/svg"
   xmlns:svg="http://www.w3.org/2000/svg">
  <defs
     id="defs10">
    <rect
       x="82.129692"
       y="456.08191"
       width="358.22525"
       height="159.01706"
       id="rect12" />
    <rect
       x="31.453924"
       y="477.05118"
       width="459.57678"
       height="183.48123"
       id="rect10" />
  </defs>
  <sodipodi:namedview
     id="namedview10"
     pagecolor="#ffffff"
     bordercolor="#000000"
     borderopacity="0.25"
     inkscape:showpageshadow="2"
     inkscape:pageopacity="0.0"
     inkscape:pagecheckerboard="0"
     inkscape:deskcolor="#d1d1d1"
     inkscape:zoom="9.15625"
     inkscape:cx="20.368601"
     inkscape:cy="22.498294"
     inkscape:window-width="1440"
     inkscape:window-height="830"
     inkscape:window-x="-6"
     inkscape:window-y="-6"
     inkscape:window-maximized="1"
     inkscape:current-layer="svg10" />
  <path
     d="m 39.83415,0.25540538 c 0.301161,0.3652087 0.117911,0.86317152 0.0264,1.27306582 -0.0126,0.058209 -0.0252,0.1164288 -0.0381,0.176406 -0.04239,0.19543 -0.08579,0.3907255 -0.12916,0.5860211 -0.0306,0.1392472 -0.0612,0.2784945 -0.0917,0.4177417 -0.28836,1.3064404 -0.58919,2.6110715 -0.89132,3.9154752 -0.0382,0.1648468 -0.0762,0.3297247 -0.1142,0.4945923 -0.0604,0.2617968 -0.12121,0.5235314 -0.18232,0.7852249 -0.0227,0.097395 -0.0452,0.1947786 -0.0677,0.2921937 -0.0309,0.1342121 -0.0623,0.2683517 -0.0939,0.4024709 -0.009,0.039184 -0.0179,0.078267 -0.027,0.1186103 -0.11931,0.501933 -0.11931,0.501933 -0.34091,0.6943546 -0.24502,0.101737 -0.38275,0.104414 -0.65586,0.06762 -0.127615,-0.073513 -0.127615,-0.073513 -0.260125,-0.171053 -0.0739,-0.054383 -0.0739,-0.054383 -0.14937,-0.109853 -0.25912,-0.1980454 -0.51232,-0.4004233 -0.76358,-0.6049517 -0.0832,-0.067411 -0.0832,-0.067411 -0.16812,-0.1361661 -0.17522,-0.1419665 -0.35019,-0.2841396 -0.52516,-0.4263129 -0.11956,-0.096981 -0.23914,-0.1938791 -0.35874,-0.290798 -0.291441,-0.2362385 -0.582661,-0.4726423 -0.87375,-0.7091599 -0.412021,0.2764059 -0.789821,0.5742138 -1.16714,0.8810685 -0.0664,0.053866 -0.132911,0.1076402 -0.199391,0.1614452 -0.14228,0.1152088 -0.28445,0.2305003 -0.42654,0.3458641 -0.225141,0.1827853 -0.45054,0.3653431 -0.675991,0.5478699 -0.51925,0.4204709 -1.03815,0.8412219 -1.55705,1.261982 -0.4757,0.385722 -0.95148,0.771392 -1.42755,1.156834 -0.223641,0.181079 -0.447111,0.362292 -0.67044,0.54363 -0.1395,0.113204 -0.27915,0.226283 -0.418831,0.33934 -0.0946,0.07661 -0.18902,0.153403 -0.283429,0.230191 -0.342471,0.276882 -0.693841,0.540146 -1.061591,0.794839 -0.19299,0.142939 -0.38074,0.289734 -0.56783,0.437697 -0.0484,0.03702 -0.0969,0.07403 -0.14677,0.112211 -0.0453,0.03598 -0.0907,0.07196 -0.13742,0.109091 -0.041,0.03205 -0.0821,0.0641 -0.12436,0.09708 -0.0953,0.09409 -0.0953,0.09409 -0.0658,0.209666 0.0571,0.117887 0.118111,0.231534 0.186831,0.345316 0.29333,0.497663 0.55432,0.990446 0.74087,1.521505 0.0239,0.06741 0.0239,0.06741 0.0482,0.136093 0.27271,0.814237 0.383651,1.608995 0.4243,2.448583 0.0754,1.486537 0.53717,2.801786 1.825221,3.920365 0.11545,0.07785 0.23234,0.154343 0.35214,0.22774 0.0179,-0.03278 0.0358,-0.06545 0.0542,-0.09915 0.52113,-0.773057 1.76808,-1.268859 2.766471,-1.51981 0.0453,-0.0107 0.0906,-0.0212 0.13731,-0.03215 0.0469,-0.01093 0.0937,-0.02192 0.14199,-0.03329 1.579531,-0.327172 3.1992,-0.05242 4.576702,0.602647 0.229869,0.119644 0.432219,0.249534 0.63385,0.398562 0.0628,0.0456 0.125649,0.0912 0.190379,0.13812 1.079001,0.823449 1.70656,1.930737 1.795911,3.128193 0.0216,1.304785 -0.41915,2.533249 -1.551341,3.496358 -0.0973,0.08074 -0.19569,0.16067 -0.294089,0.24057 -0.04901,0.04167 -0.0981,0.08323 -0.148561,0.126107 -0.74357,0.588317 -1.73671,0.901923 -2.739001,1.069561 -0.0825,0.01634 -0.0825,0.01634 -0.166709,0.03288 -1.479731,0.191687 -2.945051,-0.126137 -4.182222,-0.783777 -1.31147,-0.776458 -2.121041,-1.815559 -2.449581,-3.1104 -0.0288,-0.158363 -0.0281,-0.293051 -0.0198,-0.451705 -0.0224,-0.197301 -0.0822,-0.240963 -0.27236,-0.373655 -0.16945,-0.09822 -0.343589,-0.190282 -0.51776,-0.2829 -1.9477,-1.047683 -3.160441,-2.905043 -3.614721,-4.719661 -0.11135,-0.488845 -0.13496,-0.974203 -0.15098,-1.470451 -0.0311,-0.962664 -0.19993,-1.825794 -0.598641,-2.732969 -0.026,-0.05955 -0.0519,-0.119189 -0.0787,-0.180594 -0.339941,-0.716438 -0.88081,-1.322714 -1.54117,-1.869135 -0.061,-0.05046 -0.122011,-0.101016 -0.184871,-0.153009 -0.0828,-0.06513 -0.0828,-0.06513 -0.16727,-0.131669 -0.03,-0.0275 -0.0601,-0.05501 -0.09109,-0.08343 -1.20712,-1.06619 -3.152162,-1.739081 -4.909332,-1.852449 -0.32356,-0.0107 -0.64709,-0.01447 -0.97087,-0.018 -0.0913,-10e-4 -0.18266,-0.002 -0.276761,-0.0032 -0.240709,-0.0032 -0.481409,-0.0062 -0.72212,-0.0082 -0.24647,-0.0032 -0.49293,-0.0062 -0.7394,-0.0093 -0.48203,-0.0062 -0.96407,-0.01189 -1.44611,-0.01748 -0.0141,0.0641 -0.0141,0.0641 -0.0285,0.129529 -0.17174,0.635141 -0.70691,1.224989 -1.2392302,1.692451 -0.0371,0.03526 -0.0743,0.0705 -0.11252,0.10676 -0.8269,0.738595 -2.1408106,1.242243 -3.3565609,1.333963 -0.23649,0.0072 -0.4715302,0.0093 -0.7081903,0.0072 -0.0835,-4.55e-4 -0.1669899,-9.41e-4 -0.25301,-10e-4 -1.54457,-0.02391 -2.8065704,-0.554616 -3.9286707,-1.400562 -0.5872902,-0.494602 -1.01976035,-1.106855 -1.28971045,-1.754362 -0.0276,-0.06565 -0.0552,-0.13138 -0.0836,-0.19906 C -0.2136617,10.825694 -0.00750163,9.5405419 0.71571855,8.3945751 0.99494865,7.9849083 1.3243788,7.6468502 1.7325289,7.3163294 c 0.0726,-0.059657 0.0726,-0.059657 0.1466301,-0.1205438 1.1527003,-0.8886678 2.6878608,-1.2305927 4.2446713,-1.2063475 1.4824104,0.048801 2.8994105,0.6130476 3.9214207,1.4799101 0.44378,0.4214121 1.195081,1.1504233 1.195081,1.7258985 0.0732,-5.687e-4 0.0732,-5.687e-4 0.147789,-0.00103 0.466971,-0.0031 0.93393,-0.00621 1.400911,-0.00724 0.239899,-8.788e-4 0.47978,-0.00207 0.71966,-0.00413 3.534102,-0.026882 6.594372,0.7350182 9.281853,2.6319873 0.264701,-0.08912 0.43238,-0.221639 0.63376,-0.38479 0.0345,-0.02782 0.0689,-0.05552 0.104444,-0.08415 0.11528,-0.09305 0.23006,-0.186426 0.34484,-0.279839 0.0826,-0.06679 0.165189,-0.133571 0.24783,-0.20031 0.224239,-0.181256 0.448039,-0.362853 0.671759,-0.54451 0.233891,-0.189796 0.468181,-0.3792701 0.70243,-0.5687861 C 25.939109,9.3935469 26.38226,9.034356 26.825279,8.6750614 27.32966,8.2660252 27.83444,7.8573096 28.33926,7.448625 29.37769,6.6079307 30.415621,5.7668334 31.453211,4.9254567 31.223817,4.7051387 30.994217,4.4899404 30.736997,4.2902713 c -0.0536,-0.04177 -0.107099,-0.083644 -0.16227,-0.1267161 -0.0564,-0.043838 -0.112719,-0.087676 -0.170789,-0.1328474 -0.12066,-0.095223 -0.241251,-0.1904051 -0.361771,-0.2856906 -0.18851,-0.1488832 -0.37739,-0.2973839 -0.56758,-0.4448611 -0.18453,-0.1433208 -0.3672,-0.2880477 -0.54964,-0.4331055 -0.0572,-0.043734 -0.114431,-0.087469 -0.17338,-0.1324958 -0.431771,-0.3472599 -0.431771,-0.3472599 -0.45047,-0.6162527 0.0533,-0.2105044 0.0533,-0.2105044 0.160769,-0.3461951 0.226501,-0.1196752 0.445961,-0.1600598 0.707931,-0.1983662 0.0859,-0.013545 0.0859,-0.013545 0.17356,-0.027399 0.21002,-0.032569 0.42037,-0.063482 0.630861,-0.093982 0.0851,-0.012407 0.170139,-0.024918 0.257789,-0.037738 0.672481,-0.098015 1.34566,-0.1927212 2.018931,-0.2870966 0.52217,-0.073303 1.04423,-0.14699112 1.56629,-0.22077122 0.0579,-0.00828 0.115861,-0.016335 0.17555,-0.024814 0.793691,-0.1121589 1.586721,-0.2268814 2.379121,-0.3448612 0.13541,-0.020161 0.13541,-0.020161 0.27356,-0.040633 0.41938,-0.062447 0.838641,-0.12531 1.257771,-0.1887922 0.147979,-0.022126 0.29597,-0.044251 0.443959,-0.066377 0.0985,-0.0151985 0.0985,-0.0151985 0.198901,-0.0306038 0.957461,-0.1421215 0.957461,-0.1421215 1.28807,0.0460091 z"
     fill="#000000"
     id="path2"
     style="stroke-width:0.0633242" />
  <text
     xml:space="preserve"
     style="font-size:10.2874px;font-family:sans-serif;-inkscape-font-specification:'sans-serif, Normal';text-align:start;writing-mode:lr-tb;direction:ltr;text-anchor:start;fill:#000000;stroke:#000000;stroke-width:0.275553"
     x="6.7220874"
     y="42.141674"
     id="text13"
     transform="scale(1.0693752,0.93512548)"><tspan
       sodipodi:role="line"
       id="tspan13"
       x="6.7220874"
       y="42.141674"
       style="font-style:normal;font-variant:normal;font-weight:bold;font-stretch:normal;font-family:sans-serif;-inkscape-font-specification:'sans-serif Bold';stroke-width:0.275553">SHP</tspan></text>
</svg>
