<?xml version="1.0" encoding="UTF-8" standalone="no"?>
<svg
   version="1.1"
   width="40"
   height="40"
   id="svg10"
   sodipodi:docname="shpd.svg"
   inkscape:version="1.4.2 (f4327f4, 2025-05-13)"
   xmlns:inkscape="http://www.inkscape.org/namespaces/inkscape"
   xmlns:sodipodi="http://sodipodi.sourceforge.net/DTD/sodipodi-0.dtd"
   xmlns="http://www.w3.org/2000/svg"
   xmlns:svg="http://www.w3.org/2000/svg">
  <defs
     id="defs10">
    <rect
       x="512"
       y="606.36176"
       width="407.15359"
       height="120.57338"
       id="rect4" />
    <rect
       x="737.4198"
       y="594.1297"
       width="59.412971"
       height="143.2901"
       id="rect3" />
    <rect
       x="588.88739"
       y="148.53242"
       width="342.49829"
       height="366.96246"
       id="rect1" />
  </defs>
  <sodipodi:namedview
     id="namedview10"
     pagecolor="#ffffff"
     bordercolor="#000000"
     borderopacity="0.25"
     inkscape:showpageshadow="2"
     inkscape:pageopacity="0.0"
     inkscape:pagecheckerboard="0"
     inkscape:deskcolor="#d1d1d1"
     inkscape:zoom="9.1562501"
     inkscape:cx="20.259385"
     inkscape:cy="22.935153"
     inkscape:window-width="1440"
     inkscape:window-height="830"
     inkscape:window-x="-6"
     inkscape:window-y="-6"
     inkscape:window-maximized="1"
     inkscape:current-layer="svg10" />
  <path
     d="m 1.7474403,2.6962431e-8 c 337.9199997,0 675.8399997,0 1023.9999597,0 C 1025.7474,337.92 1025.7474,675.84 1025.7474,1024 c -337.91996,0 -675.83996,0 -1023.9999597,0 0,-337.92 0,-675.84 0,-1023.999999973037574 z"
     fill="#000000"
     id="path1"
     style="display:inline;fill:#000000;fill-opacity:0"
     inkscape:label="path1" />
  <path
     d="m 12.263319,0.29292084 c 0.220465,0.273158 0.398598,0.59798433 0.48408,1.05924756 0.0049,0.1293367 0.0069,0.2590243 0.0049,0.3886113 0,0.078168 0,0.1563389 -1.7e-5,0.2368069 -2.35e-4,0.084003 -5.02e-4,0.1680391 -7.67e-4,0.2546241 -1.02e-4,0.1295063 -1.02e-4,0.1295063 -2.01e-4,0.2614575 -2.82e-4,0.2757417 -8.83e-4,0.5514837 -0.0015,0.8272407 -2.51e-4,0.186872 -5.01e-4,0.373763 -6.85e-4,0.560632 -5.32e-4,0.458281 -0.0014,0.91656 -0.0015,1.374841 0.04001,-3.66e-4 0.08017,-6.34e-4 0.121324,-9.99e-4 0.975448,-0.0081 1.950864,-0.01332 2.926314,-0.01746 0.471731,-0.0016 0.943445,-0.005 1.415162,-0.0081 0.411216,-0.0033 0.822431,-0.005 1.233648,-0.0067 0.217682,-4.5e-4 0.435349,-0.0016 0.653017,-0.0033 0.205065,-0.0016 0.410097,-0.0033 0.615149,-0.0033 0.07515,-10e-5 0.15017,-8.01e-4 0.225284,-0.0016 0.392948,-0.0067 0.712663,-0.0067 1.048629,0.397232 0.228083,0.431278 0.264549,0.792054 0.26035,1.369119 -0.02215,0.368731 -0.08568,0.552569 -0.211016,0.849194 -0.278433,0.388378 -0.5045,0.460662 -0.847915,0.493565 -0.05549,0.0052 -0.05549,0.0052 -0.111987,0.01159 -0.09117,0.0099 -0.182233,0.01841 -0.273367,0.02716 0.0215,0.0815 0.04302,0.162847 0.06533,0.246776 0.400234,1.5147761 0.797496,3.0315201 1.181449,4.5599161 0.308247,1.226918 0.622864,2.448418 0.938965,3.668874 0.247381,0.95628 0.488614,1.916923 0.724981,2.882168 0.179084,0.02931 0.358166,0.05849 0.542665,0.08868 -0.07749,2.090648 -0.504931,3.813694 -1.347397,5.262938 -1.042913,1.627464 -2.290297,2.075045 -3.635228,1.924371 -1.137815,-0.260789 -2.148579,-1.396753 -2.852061,-2.994703 -0.491401,-1.249419 -0.821666,-2.641941 -0.798584,-4.192606 0.179085,0 0.358166,0 0.542665,0 0.01165,-0.0725 0.02485,-0.144993 0.0375,-0.219637 0.07117,-0.364563 0.1585,-0.70817 0.249801,-1.057614 0.01866,-0.072 0.03735,-0.144008 0.05649,-0.218224 0.04018,-0.154837 0.08033,-0.309559 0.120487,-0.464263 0.107157,-0.412045 0.213718,-0.824558 0.320351,-1.237035 0.0215,-0.08316 0.04299,-0.166187 0.06517,-0.251762 0.190716,-0.73792 0.378717,-1.477992 0.565414,-2.21923 0.02967,-0.117331 0.05916,-0.234808 0.08884,-0.352209 0.04451,-0.176676 0.08899,-0.35333 0.133496,-0.53 0.1681,-0.666939 0.337168,-1.333087 0.506383,-1.999109 0.03351,-0.131655 0.067,-0.26351 0.100328,-0.395259 0.04682,-0.184515 0.09366,-0.368995 0.14067,-0.553452 0.0265,-0.104494 0.05316,-0.209004 0.0805,-0.316676 0.147324,-0.5744981 0.296499,-1.1474131 0.445251,-1.7207011 -1.758232,0 -3.516463,0 -5.32796,0 0.01666,8.2574131 0.03249,16.5148351 0.04934,25.0224651 0.781449,0.746691 0.781449,0.746691 1.578647,1.508445 0.585831,0.593401 0.585831,0.593401 0.855615,0.870693 0.310035,0.316726 0.624398,0.618449 0.938881,0.920593 0.372232,0.358977 0.743947,0.718903 1.109981,1.098064 0.03333,0.03384 0.06685,0.06768 0.101158,0.102504 0.191101,0.20119 0.330566,0.394347 0.447583,0.73492 0.04867,0.447949 0.04001,0.850008 -0.08632,1.247803 -0.237465,0.367778 -0.444532,0.375096 -0.749599,0.373113 -0.06767,6.16e-4 -0.06767,6.16e-4 -0.136675,0.0012 -0.151495,0.0011 -0.302814,9.69e-4 -0.454231,8.03e-4 -0.108334,5.33e-4 -0.216833,0.0011 -0.325248,0.0017 -0.294783,0.0017 -0.589552,0.0017 -0.884334,0.0017 -0.245932,1.71e-4 -0.491864,8.01e-4 -0.737797,0.0014 -0.546986,0.0014 -1.093983,0.0017 -1.640979,0.0017 -0.03284,0 -0.06567,-1.7e-5 -0.09951,-1.7e-5 -0.03284,-1.6e-5 -0.06567,-1.6e-5 -0.0995,-3.3e-5 -0.53255,-6.6e-5 -1.065084,0.0017 -1.597634,0.0033 -0.546882,0.0033 -1.0937623,0.0033 -1.6406444,0.0033 -0.3069991,-3.3e-5 -0.6139992,4.5e-4 -0.9209994,0.0017 -0.288714,0.0017 -0.5774145,0.0017 -0.8661302,4.32e-4 -0.1060057,-1.66e-4 -0.2120016,2.68e-4 -0.3179995,0.0013 -0.1446693,0.0014 -0.2892325,5.35e-4 -0.433883,-7.99e-4 -0.042004,9.15e-4 -0.084008,0.0017 -0.1273343,0.0033 -0.2638086,-0.0052 -0.4127104,-0.08832 -0.6225592,-0.40158 -0.1419998,-0.306509 -0.1656666,-0.564883 -0.1724836,-0.961844 0.050835,-0.398645 0.1494996,-0.633621 0.3329663,-0.863025 0.1440057,-0.153021 0.2900157,-0.296445 0.4376667,-0.437799 0.054675,-0.05365 0.1091606,-0.107175 0.1654993,-0.162345 0.114989,-0.112677 0.2301999,-0.224758 0.3456665,-0.336013 0.1664978,-0.160321 0.3324988,-0.321807 0.4984987,-0.483563 0.2134336,-0.207575 0.4270829,-0.414344 0.6409513,-0.620434 0.3074304,-0.296258 0.6142795,-0.594367 0.9209459,-0.893208 0.047984,-0.04669 0.095835,-0.09334 0.1453328,-0.141343 0.2492323,-0.242775 0.4980152,-0.486982 0.7462141,-0.733157 0.05015,-0.04969 0.100329,-0.09932 0.152003,-0.150357 0.09584,-0.09501 0.191599,-0.190133 0.28723,-0.285691 0.04249,-0.042 0.085,-0.08418 0.12882,-0.127503 0.03735,-0.03733 0.07482,-0.07449 0.113329,-0.112849 0.09185,-0.07951 0.09185,-0.07951 0.190483,-0.07951 0,-8.286696 0,-16.573384 0,-25.1112031 -2.6373444,0.04401 -2.6373444,0.04401 -5.3279568,0.08868 0.2604657,0.995578 0.5209478,1.9911381 0.7893152,3.0168841 0.392981,1.551414 0.392981,1.551414 0.5459489,2.160082 0.2153178,0.85519 0.4343821,1.707265 0.6534658,2.559358 0.3097996,1.205136 0.6179996,2.41142 0.9219149,3.62139 0.1790652,0.02931 0.3581493,0.05853 0.5426491,0.08868 -0.035663,1.862052 -0.3961174,3.39268 -1.0853157,4.791537 -0.029169,0.06066 -0.058171,0.121517 -0.088328,0.184038 C 7.2494701,26.1909 6.1411709,26.935587 5.0936394,27.028241 3.9147747,27.087511 2.7717432,26.565374 1.881778,25.097882 1.7856114,24.934031 1.6918617,24.767135 1.5981284,24.598768 1.5431292,24.501438 1.5431292,24.501438 1.4871295,24.402221 0.85286512,23.205649 0.46344893,21.45705 0.46344893,19.807134 c 0.19536648,0 0.39071604,0 0.59199907,0 0.013338,-0.07534 0.026332,-0.150824 0.039999,-0.228492 0.060333,-0.312441 0.131334,-0.606784 0.2080165,-0.907357 0.015013,-0.05834 0.029665,-0.116499 0.044999,-0.176585 0.049168,-0.193024 0.098501,-0.385861 0.1480006,-0.578685 0.035,-0.137173 0.070001,-0.274257 0.1050004,-0.41141 0.370581,-1.451677 0.7445635,-2.900554 1.1184131,-4.349514 0.419166,-1.624696 0.8355653,-3.251543 1.2462979,-4.8832061 -0.056001,0.0033 -0.112,0.0081 -0.169583,0.01159 -0.7600427,0.03965 -0.7600427,0.03965 -1.0638086,-0.367414 -0.1974552,-0.44613 -0.2682551,-0.821356 -0.2631719,-1.382757 0.028667,-0.371195 0.1143339,-0.663538 0.2632331,-0.924064 0.3686162,-0.440042 0.7373655,-0.402925 1.164048,-0.395226 0.077833,8.3e-5 0.1556661,5e-5 0.2334662,-1.66e-4 0.2103665,-9.9e-5 0.4206994,0.0016 0.631049,0.005 0.2201662,0.0016 0.4403332,0.0016 0.6605153,0.0033 0.4165163,0.0011 0.8330148,0.0033 1.2495297,0.0081 0.4743667,0.0033 0.9487173,0.0067 1.4230832,0.0081 0.97543,0.0033 1.9508305,0.01021 2.9262425,0.01784 -0.0012,-0.114511 -0.0033,-0.229106 -0.0033,-0.347142 -0.0049,-0.427295 -0.0069,-0.854575 -0.01005,-1.281938 -0.0012,-0.184523 -0.0033,-0.369027 -0.0049,-0.553532 -0.0033,-0.266091 -0.0049,-0.5320994 -0.0049,-0.7982405 -0.0012,-0.081669 -0.0033,-0.1635047 -0.0033,-0.2476907 -1.5e-4,-0.5718502 0.07199,-0.9419609 0.274617,-1.38554026 0.294,-0.4910144 0.618266,-0.5758003 0.995932,-0.349377 z"
     fill="#fefefe"
     id="path2"
     style="display:inline;fill:#000000;fill-opacity:1;stroke-width:0.0661622" />
  <path
     d="m 19.023238,9.0309039 c 0.140672,0.304576 0.228366,0.64045 0.31815,0.9985791 0.01666,0.06384 0.03249,0.127659 0.04916,0.193538 0.0535,0.210636 0.106665,0.421528 0.159827,0.632433 0.03764,0.148661 0.07534,0.297208 0.113163,0.445781 0.07782,0.306325 0.155338,0.61277 0.232885,0.919291 0.152002,0.601135 0.304616,1.20172 0.457284,1.802304 0.04783,0.188098 0.0955,0.376278 0.143168,0.564433 0.181181,0.713969 0.36368,1.42681 0.547347,2.13873 0.04117,0.159992 0.08251,0.320058 0.123657,0.480099 0.07949,0.308609 0.159335,0.617034 0.239232,0.925361 0.03618,0.140322 0.07234,0.280773 0.108668,0.421159 0.025,0.09602 0.025,0.09602 0.05052,0.193934 0.07266,0.282595 0.128015,0.539934 0.170168,0.843476 -1.774515,0 -3.549012,0 -5.377291,0 0.09249,-0.498782 0.174898,-0.929826 0.298301,-1.394757 0.01485,-0.05384 0.02834,-0.107659 0.04301,-0.163159 0.0305,-0.115686 0.061,-0.231109 0.09166,-0.346543 0.08384,-0.315645 0.166768,-0.632071 0.24975,-0.948427 0.01719,-0.06534 0.03433,-0.130686 0.05199,-0.197922 0.175053,-0.667788 0.344887,-1.339727 0.514003,-2.012411 0.284297,-1.129685 0.571414,-2.256967 0.860247,-3.382915 0.01933,-0.07552 0.03865,-0.15117 0.05867,-0.228994 0.05518,-0.215204 0.110325,-0.430359 0.165666,-0.6455 0.01667,-0.06368 0.03268,-0.127347 0.04934,-0.192865 0.0905,-0.3516951 0.183852,-0.6998871 0.281269,-1.0455651 z"
     fill="#000000"
     id="path4"
     style="display:inline;fill:#ffffff;fill-opacity:1;stroke-width:0.0661622" />
  <path
     d="m 4.804797,9.0309039 c 0.1360008,0.296223 0.2224,0.617999 0.3091,0.9659911 0.022997,0.09067 0.022997,0.09067 0.046337,0.183073 0.050329,0.199108 0.1003289,0.398481 0.1501675,0.597836 0.035504,0.140512 0.070832,0.281041 0.1063349,0.421529 0.073162,0.28949 0.1459986,0.579083 0.218834,0.868776 0.142499,0.566751 0.2855325,1.133016 0.4286321,1.69925 0.04483,0.177685 0.08966,0.355407 0.1344922,0.533131 0.1685847,0.66802 0.3383009,1.335073 0.5091156,2.001242 0.018993,0.07417 0.038,0.148159 0.057489,0.224557 0.092334,0.36016 0.1847161,0.720187 0.2773661,1.080048 0.033654,0.131499 0.067499,0.262976 0.1011651,0.394477 0.014851,0.05801 0.030005,0.115842 0.045337,0.175554 0.1193225,0.466384 0.2221993,0.934913 0.3286658,1.413657 -1.7745132,0 -3.5490108,0 -5.377291,0 0.1006676,-0.542897 0.2033329,-1.044111 0.3379994,-1.556977 0.018334,-0.07066 0.036666,-0.141344 0.0555,-0.214191 0.039332,-0.151672 0.078832,-0.303208 0.1183329,-0.454677 0.062835,-0.241077 0.1254996,-0.482383 0.1880664,-0.723773 0.064666,-0.249775 0.1294992,-0.499531 0.1942496,-0.749226 0.2102826,-0.81024 0.418499,-1.622176 0.6259653,-2.434767 0.017,-0.06666 0.034,-0.13335 0.051668,-0.201991 0.1868829,-0.731273 0.3726326,-1.463409 0.5563656,-2.197246 0.016666,-0.06484 0.032502,-0.129838 0.049168,-0.196626 0.076999,-0.307275 0.1536654,-0.614666 0.2301497,-0.922275 0.026667,-0.1068291 0.053334,-0.2136411 0.080834,-0.3236951 0.023333,-0.09384 0.046665,-0.187761 0.070667,-0.284473 0.055666,-0.21049 0.055666,-0.21049 0.1050016,-0.299209 z"
     fill="#000000"
     id="path5"
     style="display:inline;fill:#ffffff;fill-opacity:1;stroke-width:0.0661622" />
  <text
     xml:space="preserve"
     style="font-style:normal;font-variant:normal;font-weight:bold;font-stretch:normal;font-size:8.84439px;font-family:sans-serif;-inkscape-font-specification:'sans-serif Bold';font-variant-ligatures:normal;font-variant-caps:normal;font-variant-numeric:normal;font-variant-east-asian:normal;text-align:start;writing-mode:lr-tb;direction:ltr;text-anchor:start;fill:#000000;stroke-width:0.118452"
     x="24.975277"
     y="28.147614"
     id="text5"
     transform="scale(0.76443074,1.308163)"><tspan
       sodipodi:role="line"
       id="tspan5"
       x="24.975277"
       y="28.147614"
       style="font-style:normal;font-variant:normal;font-weight:bold;font-stretch:normal;font-family:sans-serif;-inkscape-font-specification:'sans-serif Bold';stroke-width:0.118452">SHPD</tspan></text>
</svg>
